HIERARCHY
ROOT Hips
{
	OFFSET -3.958830 18.904000 13.208200
	CHANNELS 6 Xposition Yposition Zposition Zrotation Yrotation Xrotation 
	JOINT LHipJoint
	{
		OFFSET 0.000000 0.000000 0.000000
		CHANNELS 3 Zrotation Yrotation Xrotation
		JOINT LeftUpLeg
		{
			OFFSET 1.800000 -1.400000 0.085000
			CHANNELS 3 Zrotation Yrotation Xrotation
			JOINT LeftLeg
			{
				OFFSET 2.215000 -6.000000 0.000000
				CHANNELS 3 Zrotation Yrotation Xrotation
				JOINT LeftFoot
				{
					OFFSET 2.500000 -6.900000 0.000000
					CHANNELS 3 Zrotation Yrotation Xrotation
					JOINT LeftToeBase
					{
						OFFSET 0.200000 -0.500000 1.950000
						CHANNELS 3 Zrotation Yrotation Xrotation
						End Site
						{
							OFFSET 0.000000 0.000000 0.000000
						}
					}
				}
			}
		}
	}
	JOINT RHipJoint
	{
		OFFSET 0.000000 0.000000 0.000000
		CHANNELS 3 Zrotation Yrotation Xrotation
		JOINT RightUpLeg
		{
			OFFSET -1.800000 -1.400000 0.085000
			CHANNELS 3 Zrotation Yrotation Xrotation
			JOINT RightLeg
			{
				OFFSET -2.215000 -6.000000 0.000000
				CHANNELS 3 Zrotation Yrotation Xrotation
				JOINT RightFoot
				{
					OFFSET -2.500000 -6.900000 0.000000
					CHANNELS 3 Zrotation Yrotation Xrotation
					JOINT RightToeBase
					{
						OFFSET -0.200000 -0.500000 1.950000
						CHANNELS 3 Zrotation Yrotation Xrotation
						End Site
						{
							OFFSET 0.000000 0.000000 0.000000
						}
					}
				}
			}
		}
	}
	JOINT LowerBack
	{
		OFFSET 0.000000 0.000000 0.000000
		CHANNELS 3 Zrotation Yrotation Xrotation
		JOINT Spine
		{
			OFFSET -0.087000 1.940000 -0.288900
			CHANNELS 3 Zrotation Yrotation Xrotation
			JOINT Spine1
			{
				OFFSET 0.000000 1.950000 0.060000
				CHANNELS 3 Zrotation Yrotation Xrotation
				JOINT Neck
				{
					OFFSET 0.000000 0.000000 0.000000
					CHANNELS 3 Zrotation Yrotation Xrotation
					JOINT Neck1
					{
						OFFSET 0.000000 1.600000 0.340000
						CHANNELS 3 Zrotation Yrotation Xrotation
						JOINT Head
						{
							OFFSET 0.000000 1.667000 -0.240000
							CHANNELS 3 Zrotation Yrotation Xrotation
							End Site
							{
								OFFSET 0.000000 0.000000 0.000000
							}
						}
					}
				}
				JOINT LeftShoulder
				{
					OFFSET 0.000000 0.000000 0.000000
					CHANNELS 3 Zrotation Yrotation Xrotation
					JOINT LeftArm
					{
						OFFSET 2.700000 1.550000 -0.730000
						CHANNELS 3 Zrotation Yrotation Xrotation
						JOINT LeftForeArm
						{
							OFFSET 5.450000 0.000000 0.000000
							CHANNELS 3 Zrotation Yrotation Xrotation
							JOINT LeftHand
							{
								OFFSET 3.450000 0.000000 0.000000
								CHANNELS 3 Zrotation Yrotation Xrotation
								JOINT LeftHandIndex1
								{
									OFFSET 0.750000 0.000000 0.000000
									CHANNELS 3 Zrotation Yrotation Xrotation
									End Site
									{
										OFFSET 0.000000 0.000000 0.000000
									}
								}
							}
						}
					}
				}
				JOINT RightShoulder
				{
					OFFSET 0.000000 0.000000 0.000000
					CHANNELS 3 Zrotation Yrotation Xrotation
					JOINT RightArm
					{
						OFFSET -2.700000 1.550000 -0.730000
						CHANNELS 3 Zrotation Yrotation Xrotation
						JOINT RightForeArm
						{
							OFFSET -5.450000 0.000000 0.000000
							CHANNELS 3 Zrotation Yrotation Xrotation
							JOINT RightHand
							{
								OFFSET -3.450000 0.000000 0.000000
								CHANNELS 3 Zrotation Yrotation Xrotation
								JOINT RightHandIndex1
								{
									OFFSET -0.750000 0.000000 0.000000
									CHANNELS 3 Zrotation Yrotation Xrotation
									End Site
									{
										OFFSET 0.000000 0.000000 0.000000
									}
								}
							}
						}
					}
				}
			}
		}
	}
}
MOTION
Frames: 6
Frame Time: 0.016667
-0.237120 16.793700 -3.341830 2.931802 -10.068719 1.743373 -14.790987 12.880792 3.080158 24.122496 -0.112297 -16.369332 -4.962467 5.659098 8.189724 -0.434908 4.706714 2.889658 0.252030 0.001780 0.233840 18.616230 -10.291466 3.217309 -10.991204 7.397460 -28.318137 10.617830 -11.903712 41.083970 -0.732172 -6.619889 2.026125 0.032000 0.164110 0.174940 -4.536351 -1.442528 -7.790317 31.125268 -14.380434 24.565232 -19.507175 -6.107383 5.148169 9.548611 -9.804742 -8.648247 -18.332267 9.096247 30.549317 -14.248300 7.022390 -14.026840 -21.129021 -0.352992 0.281815 -29.009117 2.980740 -3.053803 4.838396 -7.531104 -1.064851 -3.960081 2.729219 0.446760 0.112370 -0.037500 0.055840 1.137640 5.874017 5.779038 9.190082 2.466179 -8.248577 -113.845984 40.805353 -63.413150 1.892684 -1.546092 -0.172600 0.239600 0.127190 -0.236140 
-0.231870 16.778160 -3.342020 2.734358 -10.005352 1.949475 -14.808813 12.956358 3.046877 23.817509 -0.120857 -16.438465 -4.009716 5.381642 7.735600 -0.448544 4.585774 2.942830 0.242140 -0.010750 0.217560 18.593467 -10.243341 3.262817 -10.847790 7.568731 -28.647844 10.567784 -11.940090 41.475670 -0.735223 -6.673762 2.007271 0.030970 0.174610 0.169670 -4.473110 -1.604997 -7.806270 31.057836 -14.285347 24.520788 -18.821690 -5.976459 4.707648 9.621330 -9.792002 -8.744952 -18.230677 8.907342 30.514236 -13.815960 6.890270 -13.354640 -21.387286 -0.567863 0.387283 -29.781412 3.158543 -3.025700 5.324645 -6.713260 -1.045937 -3.971631 2.735220 0.442330 0.115500 -0.050880 0.059530 1.249344 6.452006 5.724040 9.450880 3.435034 -8.698223 -113.282510 37.440772 -58.706338 1.901556 -1.632824 -0.181550 0.237110 0.131620 -0.234070 
-0.222360 16.757800 -3.342450 2.155080 -10.134773 2.244039 -14.839976 13.054850 3.009175 23.596692 -0.084454 -16.256519 -2.567505 4.990815 6.853255 -0.446887 4.451582 3.012722 0.258200 -0.002190 0.238450 18.558096 -10.151216 3.335599 -10.350740 7.976089 -28.924496 10.715809 -11.952539 41.813297 -0.757405 -6.712277 1.992981 0.037460 0.179380 0.177690 -4.371890 -1.841184 -7.838476 31.151372 -14.045149 24.567482 -17.501302 -5.702662 4.400251 9.751005 -9.742881 -8.820423 -17.982161 8.734996 30.571160 -13.660970 6.927290 -13.063140 -21.978461 -1.129971 0.598454 -30.877005 3.169193 -2.839999 5.643930 -5.023524 -0.971289 -3.987989 2.736157 0.438840 0.117060 -0.045590 0.072360 1.608654 7.535248 5.466514 9.038009 5.615757 -9.320995 -113.058954 31.609917 -51.369548 1.927586 -1.759678 -0.179700 0.237000 0.113220 -0.231450 
-0.213610 16.736890 -3.341580 1.388793 -9.938751 2.618959 -14.873232 13.125618 3.006909 23.676002 -0.042186 -16.635719 -1.558450 4.803607 6.641081 -0.450336 4.390437 3.043968 0.266210 -0.005760 0.245360 18.526507 -10.064206 3.378620 -9.660268 8.248214 -28.938523 11.020556 -11.898939 41.533325 -0.749319 -6.675997 2.017547 0.040570 0.192240 0.179140 -4.279448 -2.053088 -7.872679 31.339874 -13.726905 24.095940 -15.935830 -5.514877 4.480828 9.853827 -9.584389 -9.100440 -17.603411 8.681737 30.893300 -13.456520 7.144210 -11.859740 -22.188868 -1.999386 0.971816 -32.849840 3.003081 -2.733626 6.822901 -3.408535 -0.874659 -4.015919 2.750732 0.429300 0.131440 -0.060730 0.084680 1.694076 8.876282 5.451781 9.547384 8.106725 -9.715703 -114.432898 26.106736 -46.068398 1.932466 -1.878062 -0.184980 0.229510 0.101360 -0.234180 
-0.205270 16.725040 -3.339840 0.544473 -9.286828 2.779983 -14.914712 13.193059 3.042516 23.886091 0.032527 -17.241531 -1.244520 4.816518 6.916922 -0.456794 4.375897 3.021278 0.267800 0.011850 0.231560 18.486623 -9.986156 3.371415 -8.977930 8.273964 -28.334984 11.733678 -11.972107 40.832488 -0.734836 -6.633296 2.039338 0.055250 0.180170 0.172500 -4.168795 -2.293025 -7.907472 31.505387 -13.520377 23.869292 -14.210936 -5.569479 4.524561 9.945294 -9.433808 -9.273342 -17.195477 8.816094 31.066825 -13.594290 7.589400 -11.278760 -22.322105 -2.731275 1.224897 -34.611088 2.669757 -2.673336 7.308198 -2.339705 -0.774882 -4.033603 2.779628 0.410360 0.140030 -0.072590 0.078770 1.732908 9.996277 5.385936 10.645368 10.794822 -9.832662 -117.268235 20.646292 -41.595629 1.926972 -1.990771 -0.179840 0.207650 0.103100 -0.237380 
-0.204420 16.725970 -3.343510 -0.077477 -8.759644 3.407248 -14.954666 13.218898 3.107258 23.904548 0.057704 -18.388027 -1.526005 4.922064 7.520167 -0.427525 4.330071 3.020089 0.307840 0.091540 0.250810 18.451505 -9.921699 3.392454 -8.002461 8.440157 -28.336734 11.606554 -11.520404 40.017456 -0.709867 -6.451145 2.117448 0.086550 0.163240 0.185790 -4.065253 -2.424745 -7.969948 31.296477 -12.819825 23.771320 -12.365589 -5.322173 4.129330 10.182013 -8.720230 -8.959739 -15.364000 8.611340 30.833007 -14.758480 8.731750 -11.138960 -23.016044 -2.787825 0.987732 -35.494448 2.238475 -2.880384 7.900069 -2.649914 -0.761349 -4.040438 2.822139 0.363830 0.164090 -0.057950 0.102230 1.963526 10.110080 5.053428 12.314231 13.727438 -9.208727 -121.397971 15.003085 -36.635679 1.931843 -2.140928 -0.141830 0.176000 0.053780 -0.222720 
